<svg xmlns="http://www.w3.org/2000/svg" width="1440" height="900" viewBox="0 0 1440 900"><title>Omnia.tax — B01 Create account</title><rect id="Background" x="0" y="0" width="1440" height="900" fill="#FFFFFF"/><g id="StepPanel"><rect id="StepPanelBg" x="0.0" y="0.0" width="597.0" height="900.0" fill="#1F3BFF"/><g id="Logo / Omnia.tax"><rect x="64.00" y="37.38" width="22.00" height="4.12" fill="#FFFFFF"/><rect x="64.00" y="42.88" width="13.75" height="4.12" fill="#FFFFFF"/><rect x="64.00" y="48.38" width="17.88" height="2.75" fill="#FFFFFF"/><rect x="72.25" y="52.50" width="13.75" height="4.12" fill="#FFFFFF"/><path d="M105.624841735363 55.173515625Q103.11757622718811 55.173515625 101.11100485205651 54.03269376516342Q99.1044334769249 52.891871905326845 97.94080000758171 50.725580580234535Q96.77716653823853 48.55928925514222 96.77716653823853 45.489218750000006Q96.77716653823853 42.39886730432511 97.94080000758171 40.22623808860779Q99.1044334769249 38.05360887289048 101.11100485205651 36.91658959269524Q103.11757622718811 35.7795703125 105.624841735363 35.7795703125Q108.13717786550522 35.7795703125 110.13487603902817 36.91658959269524Q112.13257421255112 38.05360887289048 113.29747495055199 40.22623808860779Q114.46237568855287 42.39886730432511 114.46237568855287 45.489218750000006Q114.46237568855287 48.5668944144249 113.29747495055199 50.73318573951721Q112.13257421255112 52.89947706460953 110.13487603902817 54.03649634480476Q108.13717786550522 55.173515625 105.624841735363 55.173515625ZM105.624841735363 51.64463506698608Q107.07749678850175 51.64463506698608 108.15368330478668 50.936052396297455Q109.22986982107163 50.22746972560883 109.82310551285744 48.85340234994889Q110.41634120464326 47.479334974288946 110.41634120464326 45.489218750000006Q110.41634120464326 43.48642674446106 109.82310551285744 42.10602147817612Q109.22986982107163 40.72561621189118 108.15368330478668 40.01703354120255Q107.07749678850175 39.30845087051392 105.624841735363 39.30845087051392Q104.17979184150697 39.30845087051392 103.10107001423836 40.01703354120255Q102.02234818696977 40.72561621189118 101.42277460455895 42.10602147817612Q100.82320102214814 43.48642674446106 100.82320102214814 45.489218750000006Q100.82320102214814 47.479334974288946 101.42277460455895 48.85340234994889Q102.02234818696977 50.22746972560883 103.10107001423836 50.936052396297455Q104.17979184150697 51.64463506698608 105.624841735363 51.64463506698608Z M115.84661927795412 54.92V40.7484765625H119.56816180801393V43.268410115242006H119.74055367088319Q120.18420601463319 42.01351241350174 121.22615306711198 41.29226401925087Q122.26810011959077 40.571015625 123.69539123153687 40.571015625Q125.15817360258103 40.571015625 126.1773028562069 41.299869178533555Q127.19643210983277 42.02872273206711 127.53361531829835 43.268410115242006H127.68572469329835Q128.1217765197754 42.043934597969056 129.2587919316292 41.30747511148453Q130.39580734348297 40.571015625 131.94985626792908 40.571015625Q133.92727504825592 40.571015625 135.17457068538667 41.828450185060504Q136.42186632251742 43.08588474512101 136.42186632251742 45.392884669303896V54.92H132.49244531250002V46.168610916137695Q132.49244531250002 44.9846771645546 131.86625212526323 44.400320090055466Q131.24005893802644 43.815963015556335 130.30204184150696 43.815963015556335Q129.2372591958046 43.815963015556335 128.63641834473611 44.494126596450805Q128.0355774936676 45.172290177345275 128.0355774936676 46.270023355484014V54.92H124.22276686286928V46.077339720726016Q124.22276686286928 45.04045400619507 123.6320680294037 44.428208510875706Q123.04136919593812 43.815963015556335 122.07292836761475 43.815963015556335Q121.41378000593187 43.815963015556335 120.89152915334702 44.1430034327507Q120.36927830076219 44.47004384994507 120.06758867239952 45.05187102913857Q119.76589904403687 45.63369820833206 119.76589904403687 46.42214201450348V54.92Z M141.99668420028686 46.73650200843811V54.92H138.0774044342041V40.7484765625H141.93583983135224V43.268410115242006H142.07781105709077Q142.5569562072754 42.01858458280564 143.60524192404748 41.294800103902816Q144.65352764081956 40.571015625 146.2405363817215 40.571015625Q147.71853061866761 40.571015625 148.8149849231243 41.21494283676148Q149.911439227581 41.85887004852295 150.51734141659736 43.05546333432198Q151.1232436056137 44.252056620121 151.1232436056137 45.90498499393463V54.92H147.20396383953096V46.604665837287904Q147.20396383953096 45.30918613910676 146.53467423391345 44.570179736614236Q145.8653846282959 43.83117333412171 144.68398850870133 43.83117333412171Q143.89554470252992 43.83117333412171 143.28836596083642 44.17722664952278Q142.6811872191429 44.52327996492386 142.3389357097149 45.168486050367356Q141.99668420028686 45.813692135810854 141.99668420028686 46.73650200843811Z M152.7787755279541 54.92V40.7484765625H156.69805529403686V54.92ZM154.73588087368012 38.93835271835327Q153.8587267141342 38.93835271835327 153.23508508491517 38.35579746394322Q152.6114434556961 37.773242209533166 152.6114434556961 36.95081126213074Q152.6114434556961 36.121824142932894 153.23508508491517 35.54254697442055Q153.8587267141342 34.96326980590821 154.73588087368012 34.96326980590821Q155.613035033226 34.96326980590821 156.23667666244506 35.54254697442055Q156.8603182916641 36.121824142932894 156.8603182916641 36.9470086824894Q156.8603182916641 37.7721932220459 156.23667666244506 38.355272970199586Q155.613035033226 38.93835271835327 154.73588087368012 38.93835271835327Z M162.38955782318115 55.18872903823853Q161.03831985139846 55.18872903823853 159.96975009942054 54.713385694026954Q158.90118034744262 54.23804234981537 158.29274130010606 53.30003298997879Q157.68430225276947 52.36202363014221 157.68430225276947 50.965153155326846Q157.68430225276947 49.77869879245758 158.1127458252907 48.98266143202782Q158.54118939781188 48.186624071598054 159.28906281256675 47.69607350349426Q160.03693622732163 47.205522935390476 160.99142317438125 46.94820627808571Q161.94591012144087 46.69088962078095 163.00306749248503 46.594552445411686Q164.23515590572356 46.47539824485779 164.98683190011977 46.363852298259744Q165.73850789451598 46.25230635166169 166.08202280426025 46.01780517220497Q166.42553771400452 45.78330399274826 166.42553771400452 45.33204339504242V45.271199026107794Q166.42553771400452 44.401620626449585 165.87793607258797 43.92119737625122Q165.33033443117142 43.44077412605286 164.33146213436126 43.44077412605286Q163.27174701595305 43.44077412605286 162.6430177440643 43.90218138337136Q162.0142884721756 44.363588640689855 161.81146978282928 45.06836486339569L158.18118916416168 44.77426878929138Q158.45753264570234 43.481339101791384 159.26752001905442 42.53826995134354Q160.07750739240646 41.5952008008957 161.3640914525986 41.08310821294785Q162.65067551279068 40.571015625 164.34666935825348 40.571015625Q165.52549689912794 40.571015625 166.60293056869506 40.84734285950661Q167.68036423826217 41.12367009401322 168.52710627102852 41.7042176258564Q169.37384830379486 42.28476515769959 169.86440351390837 43.19362269639969Q170.3549587240219 44.1024802350998 170.3549587240219 45.36247022151947V54.92H166.6232718553543V52.9476502943039H166.5218656053543Q166.17708961629867 53.60931771993637 165.60794904971124 54.11254716396332Q165.03880848312377 54.61577660799027 164.2402319433689 54.902252823114395Q163.44165540361405 55.18872903823853 162.38955782318115 55.18872903823853ZM163.51006470108032 52.4761427974701Q164.37710546875 52.4761427974701 165.0400579574108 52.12881989240647Q165.70301044607163 51.781496987342834 166.07948439860343 51.189529337882995Q166.45595835113525 50.597561688423156 166.45595835113525 49.859825649261474V48.35899272441864Q166.27849896097183 48.47054176568985 165.9565283920765 48.569414252042776Q165.63455782318115 48.66828673839569 165.23779751443863 48.74687751054764Q164.8410372056961 48.82546828269959 164.44934829258918 48.88377734065056Q164.05765937948226 48.94208639860153 163.7382287635803 48.98771890163422Q163.041054605484 49.08659061431885 162.5226063325405 49.310952870845796Q162.00415805959702 49.53531512737274 161.71767874979975 49.90672000527382Q161.43119944000244 50.2781248831749 161.43119944000244 50.83333555221558Q161.43119944000244 51.642063393592835 162.01556347751617 52.05910309553147Q162.5999275150299 52.4761427974701 163.51006470108032 52.4761427974701Z M174.80670269250868 55.16337128639221Q173.86363508939743 55.16337128639221 173.2197117459774 54.52705310225487Q172.57578840255738 53.89073491811752 172.57578840255738 52.95527247428894Q172.57578840255738 52.01981003046036 173.2197117459774 51.38349184632302Q173.86363508939743 50.74717366218567 174.80670269250868 50.74717366218567Q175.74977029561995 50.74717366218567 176.39369363903998 51.38349184632302Q177.03761698246 52.01981003046036 177.03761698246 52.95527247428894Q177.03761698246 53.89073491811752 176.39369363903998 54.52705310225487Q175.74977029561995 55.16337128639221 174.80670269250868 55.16337128639221Z M186.78276998615263 40.7484765625V43.709493880271914H178.25455325698852V40.7484765625ZM180.18635036563873 37.37671875H184.10563013172148V50.55954362869263Q184.10563013172148 51.26686831474304 184.42506538963318 51.6053187918663Q184.74450064754484 51.94376926898956 185.44421553230285 51.94376926898956Q185.6673089728355 51.94376926898956 185.94744188165663 51.9032073879242Q186.22757479047775 51.862645506858826 186.4227852258682 51.81194238185883L187.04642685508728 54.75268340110779Q186.39997593736646 54.94281702518463 185.79915055966376 55.03154672026634Q185.19832518196105 55.12027641534805 184.61017481184004 55.12027641534805Q182.49587090110776 55.12027641534805 181.34111063337326 54.060582959651946Q180.18635036563873 53.00088950395584 180.18635036563873 51.081788291931154Z M191.87849532318114 55.18872903823853Q190.52725735139845 55.18872903823853 189.45868759942053 54.713385694026954Q188.3901178474426 54.23804234981537 187.78167880010602 53.30003298997879Q187.17323975276946 52.36202363014221 187.17323975276946 50.965153155326846Q187.17323975276946 49.77869879245758 187.60168332529065 48.98266143202782Q188.03012689781187 48.186624071598054 188.77800031256675 47.69607350349426Q189.52587372732162 47.205522935390476 190.48036067438125 46.94820627808571Q191.43484762144087 46.69088962078095 192.49200499248502 46.594552445411686Q193.72409340572355 46.47539824485779 194.47576940011976 46.363852298259744Q195.22744539451597 46.25230635166169 195.57096030426024 46.01780517220497Q195.9144752140045 45.78330399274826 195.9144752140045 45.33204339504242V45.271199026107794Q195.9144752140045 44.401620626449585 195.36687357258796 43.92119737625122Q194.81927193117141 43.44077412605286 193.82039963436125 43.44077412605286Q192.76068451595305 43.44077412605286 192.13195524406433 43.90218138337136Q191.50322597217558 44.363588640689855 191.30040728282927 45.06836486339569L187.67012666416167 44.77426878929138Q187.94647014570234 43.481339101791384 188.75645751905438 42.53826995134354Q189.56644489240645 41.5952008008957 190.85302895259855 41.08310821294785Q192.13961301279068 40.571015625 193.83560685825347 40.571015625Q195.01443439912794 40.571015625 196.09186806869505 40.84734285950661Q197.16930173826216 41.12367009401322 198.0160437710285 41.7042176258564Q198.86278580379485 42.28476515769959 199.3533410139084 43.19362269639969Q199.8438962240219 44.1024802350998 199.8438962240219 45.36247022151947V54.92H196.1122093553543V52.9476502943039H196.01080310535428Q195.66602711629866 53.60931771993637 195.0968865497112 54.11254716396332Q194.52774598312376 54.61577660799027 193.7291694433689 54.902252823114395Q192.93059290361404 55.18872903823853 191.87849532318114 55.18872903823853ZM192.99900220108032 52.4761427974701Q193.86604296874998 52.4761427974701 194.52899545741082 52.12881989240647Q195.19194794607162 51.781496987342834 195.56842189860345 51.189529337882995Q195.94489585113524 50.597561688423156 195.94489585113524 49.859825649261474V48.35899272441864Q195.76743646097182 48.47054176568985 195.44546589207647 48.569414252042776Q195.12349532318115 48.66828673839569 194.72673501443862 48.74687751054764Q194.3299747056961 48.82546828269959 193.93828579258917 48.88377734065056Q193.54659687948225 48.94208639860153 193.2271662635803 48.98771890163422Q192.52999210548398 49.08659061431885 192.0115438325405 49.310952870845796Q191.493095559597 49.53531512737274 191.2066162497997 49.90672000527382Q190.92013694000244 50.2781248831749 190.92013694000244 50.83333555221558Q190.92013694000244 51.642063393592835 191.50450097751616 52.05910309553147Q192.08886501502988 52.4761427974701 192.99900220108032 52.4761427974701Z M204.77222759532927 40.7484765625 207.3530488424301 45.71741685390472 210.0200629262924 40.7484765625H214.06610978889464L209.9591380958557 47.846914062500005L214.1725820188522 54.92H210.15695579338072L207.3530488424301 50.02712368011475L204.62012440967558 54.92H200.55886722850798L204.77230805683135 47.846914062500005L200.71097041416166 40.7484765625Z" fill="#FFFFFF"/></g><text x="533.0" y="53.0" font-family="JetBrains Mono" font-size="11" font-weight="400" fill="#C7CEFF" text-anchor="end" letter-spacing="1.6" xml:space="preserve"><tspan x="533.0" dy="0.0">ONBOARDING</tspan></text><text id="StepNumeral" x="54.0" y="300.0" font-family="Inter Tight" font-size="250" font-weight="700" fill="#FFFFFF" text-anchor="start" letter-spacing="-14" xml:space="preserve"><tspan x="54.0" dy="0.0">01</tspan></text><text x="324.9" y="148.0" font-family="JetBrains Mono" font-size="12" font-weight="700" fill="#FFFFFF" text-anchor="start" letter-spacing="2" xml:space="preserve"><tspan x="324.9" dy="0.0">STEP</tspan></text><text x="324.9" y="172.0" font-family="JetBrains Mono" font-size="12" font-weight="400" fill="#C7CEFF" text-anchor="start" letter-spacing="2" xml:space="preserve"><tspan x="324.9" dy="0.0">OF 05</tspan></text><rect x="64.0" y="336.0" width="469.0" height="3.0" fill="#FFFFFF"/></g><g id="Header"><text x="732.0" y="53.0" font-family="JetBrains Mono" font-size="11" font-weight="700" fill="#0A0A0A" text-anchor="start" letter-spacing="1.6" xml:space="preserve"><tspan x="732.0" dy="0.0">STEP 01 OF 05</tspan></text></g><g id="Progress"><g id="Step 01 Account"><rect x="732.0" y="88.0" width="122.4" height="6.0" fill="#1F3BFF"/><text x="732.0" y="120.0" font-family="JetBrains Mono" font-size="11" font-weight="700" fill="#1F3BFF" text-anchor="start" letter-spacing="0.5" xml:space="preserve"><tspan x="732.0" dy="0.0">01</tspan></text><text x="756.0" y="120.0" font-family="Inter Tight" font-size="13" font-weight="700" fill="#0A0A0A" text-anchor="start" letter-spacing="0" xml:space="preserve"><tspan x="756.0" dy="0.0">Account</tspan></text></g><g id="Step 02 Verify"><rect x="862.4" y="88.0" width="122.4" height="6.0" fill="#E1E3E8"/><text x="862.4" y="120.0" font-family="JetBrains Mono" font-size="11" font-weight="700" fill="#A3A5AD" text-anchor="start" letter-spacing="0.5" xml:space="preserve"><tspan x="862.4" dy="0.0">02</tspan></text><text x="886.4" y="120.0" font-family="Inter Tight" font-size="13" font-weight="400" fill="#6E7079" text-anchor="start" letter-spacing="0" xml:space="preserve"><tspan x="886.4" dy="0.0">Verify</tspan></text></g><g id="Step 03 Business"><rect x="992.8" y="88.0" width="122.4" height="6.0" fill="#E1E3E8"/><text x="992.8" y="120.0" font-family="JetBrains Mono" font-size="11" font-weight="700" fill="#A3A5AD" text-anchor="start" letter-spacing="0.5" xml:space="preserve"><tspan x="992.8" dy="0.0">03</tspan></text><text x="1016.8" y="120.0" font-family="Inter Tight" font-size="13" font-weight="400" fill="#6E7079" text-anchor="start" letter-spacing="0" xml:space="preserve"><tspan x="1016.8" dy="0.0">Business</tspan></text></g><g id="Step 04 Payment"><rect x="1123.2" y="88.0" width="122.4" height="6.0" fill="#E1E3E8"/><text x="1123.2" y="120.0" font-family="JetBrains Mono" font-size="11" font-weight="700" fill="#A3A5AD" text-anchor="start" letter-spacing="0.5" xml:space="preserve"><tspan x="1123.2" dy="0.0">04</tspan></text><text x="1147.2" y="120.0" font-family="Inter Tight" font-size="13" font-weight="400" fill="#6E7079" text-anchor="start" letter-spacing="0" xml:space="preserve"><tspan x="1147.2" dy="0.0">Payment</tspan></text></g><g id="Step 05 API key"><rect x="1253.6" y="88.0" width="122.4" height="6.0" fill="#E1E3E8"/><text x="1253.6" y="120.0" font-family="JetBrains Mono" font-size="11" font-weight="700" fill="#A3A5AD" text-anchor="start" letter-spacing="0.5" xml:space="preserve"><tspan x="1253.6" dy="0.0">05</tspan></text><text x="1277.6" y="120.0" font-family="Inter Tight" font-size="13" font-weight="400" fill="#6E7079" text-anchor="start" letter-spacing="0" xml:space="preserve"><tspan x="1277.6" dy="0.0">API key</tspan></text></g></g><g id="Form"><text id="Heading" x="729.0" y="248.0" font-family="Inter Tight" font-size="48" font-weight="700" fill="#0A0A0A" text-anchor="start" letter-spacing="-2.2" xml:space="preserve"><tspan x="729.0" dy="0.0">Create your account.</tspan></text><text id="Subhead" x="732.0" y="288.0" font-family="Inter Tight" font-size="18" font-weight="400" fill="#6E7079" text-anchor="start" letter-spacing="0" xml:space="preserve"><tspan x="732.0" dy="0.0">Five short steps to your API key. The first 14 days are free.</tspan></text><g id="Field / Work email"><text x="732.0" y="348.0" font-family="Inter Tight" font-size="13" font-weight="700" fill="#0A0A0A" text-anchor="start" letter-spacing="0" xml:space="preserve"><tspan x="732.0" dy="0.0">Work email</tspan></text><rect x="732.0" y="360.0" width="560.0" height="48.0" fill="#F3F4F7"/><rect x="732.0" y="406.0" width="560.0" height="2.0" fill="#0A0A0A"/><text x="748.0" y="389.8" font-family="Inter Tight" font-size="16" font-weight="400" fill="#0A0A0A" text-anchor="start" letter-spacing="0" xml:space="preserve"><tspan x="748.0" dy="0.0">you@company.com</tspan></text></g><g id="Field / Password"><text x="732.0" y="444.0" font-family="Inter Tight" font-size="13" font-weight="700" fill="#0A0A0A" text-anchor="start" letter-spacing="0" xml:space="preserve"><tspan x="732.0" dy="0.0">Password</tspan></text><rect x="732.0" y="456.0" width="560.0" height="48.0" fill="#F3F4F7"/><rect x="733.0" y="457.0" width="558.0" height="46.0" fill="none" stroke="#1F3BFF" stroke-width="2"/><text x="748.0" y="485.8" font-family="Inter Tight" font-size="16" font-weight="400" fill="#0A0A0A" text-anchor="start" letter-spacing="0" xml:space="preserve"><tspan x="748.0" dy="0.0">••••••••••••••</tspan></text><rect x="860.1" y="468.0" width="2.0" height="24.0" fill="#1F3BFF"/><g id="Link / Show"><text x="1241.5" y="485.8" font-family="Inter Tight" font-size="13" font-weight="700" fill="#0A0A0A" text-anchor="start" letter-spacing="0" xml:space="preserve"><tspan x="1241.5" dy="0.0">Show</tspan></text></g></g><g id="PasswordRule / met"><path d="M732.0 520.6 L736.6 525.0 L744.0 515.2" fill="none" stroke="#12B76A" stroke-width="2" stroke-linecap="square" stroke-linejoin="miter"/><text x="752.0" y="524.0" font-family="Inter Tight" font-size="13" font-weight="700" fill="#12B76A" text-anchor="start" letter-spacing="0" xml:space="preserve"><tspan x="752.0" dy="0.0">12+ characters</tspan></text></g><g id="Button / Create account"><rect x="732.0" y="560.0" width="560.0" height="48.0" fill="#1F3BFF"/><text x="942.3" y="589.8" font-family="Inter Tight" font-size="16" font-weight="700" fill="#FFFFFF" text-anchor="start" letter-spacing="-0.2" xml:space="preserve"><tspan x="942.3" dy="0.0">Create account</tspan></text><path d="M1065.7 584.0 H1081.7 M1075.7 578.0 L1081.7 584.0 L1075.7 590.0" fill="none" stroke="#FFFFFF" stroke-width="2" stroke-linecap="square" stroke-linejoin="miter"/></g><text x="732.0" y="652.0" font-family="Inter Tight" font-size="16" font-weight="400" fill="#6E7079" text-anchor="start" letter-spacing="0" xml:space="preserve"><tspan x="732.0" dy="0.0">Already have an account?</tspan></text><g id="Link / Sign in"><text x="921.7" y="652.0" font-family="Inter Tight" font-size="16" font-weight="700" fill="#0A0A0A" text-anchor="start" letter-spacing="0" xml:space="preserve"><tspan x="921.7" dy="0.0">Sign in</tspan></text><rect x="921.7" y="657.0" width="50.3" height="2.0" fill="#1F3BFF"/></g><rect x="732.0" y="680.0" width="560.0" height="1.0" fill="#E1E3E8"/><text id="FinePrint" x="732.0" y="716.0" font-family="Inter Tight" font-size="13" font-weight="400" fill="#6E7079" text-anchor="start" letter-spacing="0" xml:space="preserve"><tspan x="732.0" dy="0.0">By continuing you agree to the Terms and Privacy Policy.</tspan></text><rect x="909.9" y="720.0" width="35.8" height="1.0" fill="#6E7079"/><rect x="973.7" y="720.0" width="78.6" height="1.0" fill="#6E7079"/></g><g id="WhatYouGet"><text x="64.0" y="384.0" font-family="JetBrains Mono" font-size="11" font-weight="700" fill="#FFFFFF" text-anchor="start" letter-spacing="1.6" xml:space="preserve"><tspan x="64.0" dy="0.0">WHAT YOU GET</tspan></text><text x="533.0" y="384.0" font-family="JetBrains Mono" font-size="11" font-weight="700" fill="#FFFFFF" text-anchor="end" letter-spacing="1.6" xml:space="preserve"><tspan x="533.0" dy="0.0">PRICE SHEET</tspan></text><rect x="64.0" y="400.0" width="469.0" height="1.0" fill="#576CFF"/><text x="58.0" y="512.0" font-family="Inter Tight" font-size="112" font-weight="700" fill="#FFFFFF" text-anchor="start" letter-spacing="-5" xml:space="preserve"><tspan x="58.0" dy="0.0">$0.125</tspan></text><text x="64.0" y="544.0" font-family="Inter Tight" font-size="20" font-weight="700" fill="#FFFFFF" text-anchor="start" letter-spacing="0" xml:space="preserve"><tspan x="64.0" dy="0.0">per paycheck</tspan></text><text x="64.0" y="600.0" font-family="Inter Tight" font-size="16" font-weight="400" fill="#FFFFFF" text-anchor="start" letter-spacing="0" xml:space="preserve"><tspan x="64.0" dy="0.0">Contract</tspan></text><text x="533.0" y="600.0" font-family="JetBrains Mono" font-size="16" font-weight="700" fill="#FFFFFF" text-anchor="end" letter-spacing="0" xml:space="preserve"><tspan x="533.0" dy="0.0">None</tspan></text><rect x="64.0" y="616.0" width="469.0" height="1.0" fill="#576CFF"/><text x="64.0" y="640.0" font-family="Inter Tight" font-size="16" font-weight="400" fill="#FFFFFF" text-anchor="start" letter-spacing="0" xml:space="preserve"><tspan x="64.0" dy="0.0">Minimums</tspan></text><text x="533.0" y="640.0" font-family="JetBrains Mono" font-size="16" font-weight="700" fill="#FFFFFF" text-anchor="end" letter-spacing="0" xml:space="preserve"><tspan x="533.0" dy="0.0">None</tspan></text><rect x="64.0" y="656.0" width="469.0" height="1.0" fill="#576CFF"/><text x="64.0" y="680.0" font-family="Inter Tight" font-size="16" font-weight="400" fill="#FFFFFF" text-anchor="start" letter-spacing="0" xml:space="preserve"><tspan x="64.0" dy="0.0">Setup fee</tspan></text><text x="533.0" y="680.0" font-family="JetBrains Mono" font-size="16" font-weight="700" fill="#FFFFFF" text-anchor="end" letter-spacing="0" xml:space="preserve"><tspan x="533.0" dy="0.0">None</tspan></text><rect x="64.0" y="696.0" width="469.0" height="1.0" fill="#576CFF"/><text x="64.0" y="720.0" font-family="Inter Tight" font-size="16" font-weight="400" fill="#FFFFFF" text-anchor="start" letter-spacing="0" xml:space="preserve"><tspan x="64.0" dy="0.0">Free trial</tspan></text><text x="533.0" y="720.0" font-family="JetBrains Mono" font-size="16" font-weight="700" fill="#FFFFFF" text-anchor="end" letter-spacing="0" xml:space="preserve"><tspan x="533.0" dy="0.0">First 14 days</tspan></text><rect x="64.0" y="736.0" width="469.0" height="1.0" fill="#576CFF"/><rect x="64.0" y="768.0" width="469.0" height="3.0" fill="#FFFFFF"/><text x="64.0" y="808.0" font-family="JetBrains Mono" font-size="11" font-weight="700" fill="#FFFFFF" text-anchor="start" letter-spacing="1.6" xml:space="preserve"><tspan x="64.0" dy="0.0">DUE TODAY</tspan></text><text x="64.0" y="832.0" font-family="Inter Tight" font-size="14" font-weight="400" fill="#C7CEFF" text-anchor="start" letter-spacing="0" xml:space="preserve"><tspan x="64.0" dy="0.0">Nothing is charged during the trial.</tspan></text><text x="533.0" y="840.0" font-family="Inter Tight" font-size="64" font-weight="700" fill="#FFFFFF" text-anchor="end" letter-spacing="-2.5" xml:space="preserve"><tspan x="533.0" dy="0.0">$0.00</tspan></text></g></svg>